<svg xmlns="http://www.w3.org/2000/svg" viewBox="0 0 33.86 25.82"><defs><style>.cls-1{fill:#18618f;}</style></defs><title>saving</title><g id="Layer_2" data-name="Layer 2"><g id="Layer_1-2" data-name="Layer 1"><path class="cls-1" d="M27.37,25.82a6.49,6.49,0,1,1,6.5-6.49A6.52,6.52,0,0,1,27.37,25.82Zm0-12a5.54,5.54,0,1,0,5.54,5.54A5.53,5.53,0,0,0,27.37,13.79Z"/><path class="cls-1" d="M22.16,24.77H18.7a.48.48,0,0,1-.48-.48V23.15a16.59,16.59,0,0,1-10.1-.33v1.47a.48.48,0,0,1-.48.48H4.18a.48.48,0,0,1-.48-.48v-4A10.07,10.07,0,0,1,0,12.64C0,8,3.6,3.79,9,2.18A15,15,0,0,1,19,2.39l.33.12h0L21.75.14a.48.48,0,0,1,.82.34V4.15a11.46,11.46,0,0,1,3.93,4.54h3.57a.48.48,0,0,1,.48.48v3a.48.48,0,1,1-1,0V9.65h-3.4a.48.48,0,0,1-.44-.29A10.49,10.49,0,0,0,21.82,4.8a.48.48,0,0,1-.21-.4V1.63L19.84,3.4a.47.47,0,0,1-.51.11l-.26-.09-.4-.15c-4.51-1.93-9.36-.19-9.41-.17C4.28,4.58,1,8.42,1,12.64a9.18,9.18,0,0,0,3.53,7,.48.48,0,0,1,.17.37v3.78H7.16V22.12a.48.48,0,0,1,.66-.44,15.59,15.59,0,0,0,10.73.37.48.48,0,0,1,.63.45v1.31h3a.48.48,0,0,1,0,1Z"/><path class="cls-1" d="M15.93,5H11.28a.48.48,0,0,1,0-1h4.65a.48.48,0,0,1,0,1Z"/><path class="cls-1" d="M27.37,22.87a2.38,2.38,0,0,1-2.47-2.27.38.38,0,1,1,.75,0,1.73,1.73,0,0,0,3.44,0,.88.88,0,0,0-.2-.65c-.28-.28-.92-.27-1.53-.27a2.82,2.82,0,0,1-2-.48A1.57,1.57,0,0,1,24.89,18a2.48,2.48,0,0,1,4.94,0,.38.38,0,1,1-.75,0,1.73,1.73,0,0,0-3.44,0,.85.85,0,0,0,.19.62c.27.27.9.26,1.51.27a2.84,2.84,0,0,1,2.07.49,1.6,1.6,0,0,1,.42,1.18A2.38,2.38,0,0,1,27.37,22.87Z"/><path class="cls-1" d="M27.37,16.53a.38.38,0,0,1-.38-.38v-.81a.38.38,0,1,1,.75,0v.81A.38.38,0,0,1,27.37,16.53Z"/><path class="cls-1" d="M27.37,23.69a.38.38,0,0,1-.38-.38V22.5a.38.38,0,1,1,.75,0v.81A.38.38,0,0,1,27.37,23.69Z"/></g></g></svg>