<svg xmlns="http://www.w3.org/2000/svg" viewBox="0 0 22.06 25.69"><defs><style>.cls-1{fill:#18618f;}</style></defs><title>rentability</title><g id="Layer_2" data-name="Layer 2"><g id="Layer_1-2" data-name="Layer 1"><path class="cls-1" d="M16,25.32V7.09a.37.37,0,0,1,.37-.37H21.7a.37.37,0,0,1,.37.37V25.32a.37.37,0,0,1-.37.37H16.36A.37.37,0,0,1,16,25.32ZM21.33,7.46H16.72V25h4.61Z"/><path class="cls-1" d="M0,25.32V16.21a.37.37,0,0,1,.37-.37H5.7a.37.37,0,0,1,.37.37v9.11a.37.37,0,0,1-.37.37H.37A.37.37,0,0,1,0,25.32Zm5.34-8.75H.73V25H5.34Z"/><path class="cls-1" d="M8,25.32V11.65a.37.37,0,0,1,.37-.37h5.34a.37.37,0,0,1,.37.37V25.32a.37.37,0,0,1-.37.37H8.39A.37.37,0,0,1,8,25.32ZM13.36,12H8.76V25h4.61Z"/><path class="cls-1" d="M.43,14.18a.36.36,0,0,0,.19-.05L19.33,2.64A.37.37,0,1,0,18.95,2L.23,13.51a.37.37,0,0,0,.19.68Z"/><path class="cls-1" d="M19.89,4.47,17.74.54A.37.37,0,0,1,18.1,0L21.73.4a.37.37,0,0,1,.3.5L20.55,4.44a.37.37,0,0,1-.32.22h0A.37.37,0,0,1,19.89,4.47ZM18.72.8l1.45,2.65,1-2.39Z"/></g></g></svg>