<svg xmlns="http://www.w3.org/2000/svg" viewBox="0 0 28.46 31.82"><defs><style>.cls-1{fill:#18618f;}</style></defs><title>money-before</title><g id="Layer_2" data-name="Layer 2"><g id="Layer_1-2" data-name="Layer 1"><path class="cls-1" d="M14.92,23.47a4.2,4.2,0,0,1-4.37-4,.46.46,0,1,1,.91,0,3.29,3.29,0,0,0,3.45,3.08,3.28,3.28,0,0,0,3.45-3.08,1.86,1.86,0,0,0-.44-1.38c-.59-.59-1.84-.59-3-.58-1.38,0-2.8,0-3.65-.83a2.69,2.69,0,0,1-.7-2,4.2,4.2,0,0,1,4.37-4,4.2,4.2,0,0,1,4.37,4,.46.46,0,1,1-.91,0,3.28,3.28,0,0,0-3.45-3.08,3.29,3.29,0,0,0-3.45,3.08A1.8,1.8,0,0,0,11.89,16c.58.58,1.81.57,3,.57,1.39,0,2.82,0,3.68.84a2.75,2.75,0,0,1,.71,2A4.2,4.2,0,0,1,14.92,23.47Z"/><path class="cls-1" d="M14.92,11.63a.46.46,0,0,1-.46-.46V9.65a.46.46,0,1,1,.91,0v1.52A.46.46,0,0,1,14.92,11.63Z"/><path class="cls-1" d="M14.92,25a.46.46,0,0,1-.46-.46V23a.46.46,0,1,1,.91,0v1.52A.46.46,0,0,1,14.92,25Z"/><path class="cls-1" d="M13.65,7.67a.45.45,0,0,1-.24-.07.46.46,0,0,1-.21-.43L13.86.41a.46.46,0,0,1,.78-.28l4,4a.46.46,0,0,1-.09.71l-4.63,2.8A.46.46,0,0,1,13.65,7.67Zm1-6.21-.48,4.89,3.35-2Z"/><path class="cls-1" d="M14.23,31.82A14.23,14.23,0,0,1,14,3.36a.45.45,0,0,1,.47.45.46.46,0,0,1-.45.47A13.3,13.3,0,1,0,26.75,13a.46.46,0,0,1,.86-.31A14.24,14.24,0,0,1,14.23,31.82Z"/></g></g></svg>