<svg xmlns="http://www.w3.org/2000/svg" viewBox="0 0 156.37 41.12"><defs><style>.cls-1{fill:#fff;}</style></defs><title>logo</title><g id="Layer_2" data-name="Layer 2"><g id="Layer_1-2" data-name="Layer 1"><path class="cls-1" d="M30.72,38.84l3-7.75h1.11L38,38.84H36.81l-.9-2.35H32.66l-.85,2.35ZM33,35.66h2.63l-.81-2.15c-.25-.65-.43-1.19-.55-1.61a10.3,10.3,0,0,1-.42,1.48Z"/><path class="cls-1" d="M38.9,38.84V34h-.84v-.74h.84v-.6a2.61,2.61,0,0,1,.1-.84,1.2,1.2,0,0,1,.48-.6,1.73,1.73,0,0,1,1-.23,5.06,5.06,0,0,1,.89.09l-.14.83a3.41,3.41,0,0,0-.56-.05A.82.82,0,0,0,40,32a1,1,0,0,0-.18.69v.52h1.09V34H39.85v4.87Z"/><path class="cls-1" d="M41.69,32.19V31.09h1v1.09Zm0,6.66V33.23h1v5.62Z"/><path class="cls-1" d="M44.08,38.84V31.09h1v7.75Z"/><path class="cls-1" d="M46.51,32.19V31.09h1v1.09Zm0,6.66V33.23h1v5.62Z"/><path class="cls-1" d="M52.58,38.15a3.45,3.45,0,0,1-1,.64,2.93,2.93,0,0,1-1.05.18,2,2,0,0,1-1.42-.45,1.5,1.5,0,0,1-.5-1.16,1.55,1.55,0,0,1,.19-.75,1.52,1.52,0,0,1,.5-.55,2.36,2.36,0,0,1,.68-.31,7,7,0,0,1,.85-.14,8.73,8.73,0,0,0,1.69-.33c0-.13,0-.21,0-.25a1.05,1.05,0,0,0-.27-.82,1.59,1.59,0,0,0-1.08-.32,1.68,1.68,0,0,0-1,.24,1.44,1.44,0,0,0-.47.83l-.93-.13a2.3,2.3,0,0,1,.42-1A1.82,1.82,0,0,1,50,33.3a3.73,3.73,0,0,1,1.27-.2,3.44,3.44,0,0,1,1.17.17,1.54,1.54,0,0,1,.66.43,1.5,1.5,0,0,1,.3.65,5.22,5.22,0,0,1,0,.88v1.27a13.47,13.47,0,0,0,.06,1.68,2.1,2.1,0,0,0,.24.68h-1A2.13,2.13,0,0,1,52.58,38.15ZM52.5,36a7,7,0,0,1-1.55.36,3.25,3.25,0,0,0-.83.19.81.81,0,0,0-.51.76.82.82,0,0,0,.29.64,1.25,1.25,0,0,0,.85.25,2,2,0,0,0,1-.24,1.48,1.48,0,0,0,.63-.66,2.29,2.29,0,0,0,.15-1Z"/><path class="cls-1" d="M58.58,38.84v-.71A1.75,1.75,0,0,1,57,39a2.15,2.15,0,0,1-1.23-.37,2.42,2.42,0,0,1-.88-1A3.59,3.59,0,0,1,54.59,36a4,4,0,0,1,.28-1.53A2.2,2.2,0,0,1,57,33.1a1.87,1.87,0,0,1,1.55.77V31.09h.95v7.75Zm-3-2.8A2.43,2.43,0,0,0,56,37.65a1.37,1.37,0,0,0,1.07.53,1.35,1.35,0,0,0,1.06-.51,2.36,2.36,0,0,0,.44-1.56,2.64,2.64,0,0,0-.44-1.69,1.37,1.37,0,0,0-1.1-.54,1.32,1.32,0,0,0-1.06.52A2.57,2.57,0,0,0,55.57,36Z"/><path class="cls-1" d="M60.61,36a2.9,2.9,0,0,1,.87-2.31,2.63,2.63,0,0,1,1.77-.62,2.52,2.52,0,0,1,1.9.76,2.89,2.89,0,0,1,.74,2.1,3.69,3.69,0,0,1-.33,1.7,2.28,2.28,0,0,1-.95,1,2.77,2.77,0,0,1-1.36.34,2.52,2.52,0,0,1-1.91-.76A3,3,0,0,1,60.61,36Zm1,0a2.39,2.39,0,0,0,.47,1.62,1.56,1.56,0,0,0,2.36,0A2.45,2.45,0,0,0,64.89,36a2.32,2.32,0,0,0-.47-1.58,1.57,1.57,0,0,0-2.36,0A2.38,2.38,0,0,0,61.58,36Z"/><path class="cls-1" d="M66.61,37.17l.94-.15a1.31,1.31,0,0,0,.44.87,1.56,1.56,0,0,0,1,.3,1.48,1.48,0,0,0,1-.27.79.79,0,0,0,.32-.63.57.57,0,0,0-.28-.5,3.85,3.85,0,0,0-1-.33A8.8,8.8,0,0,1,67.59,36a1.39,1.39,0,0,1-.83-1.29,1.47,1.47,0,0,1,.17-.7,1.58,1.58,0,0,1,.47-.53,2.13,2.13,0,0,1,.61-.28,3,3,0,0,1,.82-.11,3.24,3.24,0,0,1,1.16.19,1.58,1.58,0,0,1,.74.52,2,2,0,0,1,.33.87l-.93.13a1,1,0,0,0-.37-.68,1.34,1.34,0,0,0-.86-.25,1.55,1.55,0,0,0-.94.22.64.64,0,0,0-.28.51.53.53,0,0,0,.12.33.82.82,0,0,0,.36.26l.84.24a13.05,13.05,0,0,1,1.41.44,1.43,1.43,0,0,1,.63.5,1.41,1.41,0,0,1,.23.81,1.61,1.61,0,0,1-.28.89,1.8,1.8,0,0,1-.8.65A2.91,2.91,0,0,1,69,39a2.63,2.63,0,0,1-1.67-.46A2.11,2.11,0,0,1,66.61,37.17Z"/><path class="cls-1" d="M79.08,38.15a3.45,3.45,0,0,1-1,.64A2.93,2.93,0,0,1,77,39a2,2,0,0,1-1.42-.45,1.49,1.49,0,0,1-.5-1.16,1.52,1.52,0,0,1,.19-.75,1.59,1.59,0,0,1,.49-.55,2.44,2.44,0,0,1,.68-.31,7.14,7.14,0,0,1,.85-.14,8.75,8.75,0,0,0,1.7-.33c0-.13,0-.21,0-.25a1,1,0,0,0-.27-.82,1.6,1.6,0,0,0-1.08-.32,1.67,1.67,0,0,0-1,.24,1.43,1.43,0,0,0-.47.83l-.93-.13a2.33,2.33,0,0,1,.42-1,1.8,1.8,0,0,1,.84-.57,3.74,3.74,0,0,1,1.28-.2,3.43,3.43,0,0,1,1.17.17,1.52,1.52,0,0,1,.66.43,1.47,1.47,0,0,1,.3.65,5.53,5.53,0,0,1,0,.88v1.27A12.79,12.79,0,0,0,80,38.17a2.08,2.08,0,0,0,.24.68h-1A2.09,2.09,0,0,1,79.08,38.15ZM79,36a7,7,0,0,1-1.56.36,3.26,3.26,0,0,0-.83.19.8.8,0,0,0-.38.31A.84.84,0,0,0,76.39,38a1.24,1.24,0,0,0,.85.25,2,2,0,0,0,1-.24,1.48,1.48,0,0,0,.63-.66,2.27,2.27,0,0,0,.16-1Z"/><path class="cls-1" d="M88.13,38.84V38a2.06,2.06,0,0,1-1.78,1,2.27,2.27,0,0,1-.93-.19,1.58,1.58,0,0,1-.64-.48,1.79,1.79,0,0,1-.29-.71,4.87,4.87,0,0,1-.06-.89V33.23h1v3.12a5.63,5.63,0,0,0,.06,1,1,1,0,0,0,.38.59,1.16,1.16,0,0,0,.72.21,1.54,1.54,0,0,0,.81-.22,1.23,1.23,0,0,0,.53-.6,3,3,0,0,0,.16-1.1v-3h1v5.62Z"/><path class="cls-1" d="M90.47,38.84V33.23h.86V34a2,2,0,0,1,1.79-.92,2.32,2.32,0,0,1,.93.18,1.47,1.47,0,0,1,.64.48,1.84,1.84,0,0,1,.3.7,5.53,5.53,0,0,1,.05.93v3.45h-1V35.43a2.5,2.5,0,0,0-.11-.87.91.91,0,0,0-.39-.46,1.27,1.27,0,0,0-.66-.17,1.54,1.54,0,0,0-1,.39,1.91,1.91,0,0,0-.44,1.47v3.07Z"/><path class="cls-1" d="M100.16,38.15a3.46,3.46,0,0,1-1,.64,2.92,2.92,0,0,1-1,.18,2,2,0,0,1-1.42-.45,1.5,1.5,0,0,1-.5-1.16,1.55,1.55,0,0,1,.19-.75,1.6,1.6,0,0,1,.49-.55,2.43,2.43,0,0,1,.69-.31,7.13,7.13,0,0,1,.85-.14,8.85,8.85,0,0,0,1.7-.33c0-.13,0-.21,0-.25a1,1,0,0,0-.27-.82,1.59,1.59,0,0,0-1.08-.32,1.66,1.66,0,0,0-1,.24,1.41,1.41,0,0,0-.47.83l-.93-.13a2.31,2.31,0,0,1,.42-1,1.83,1.83,0,0,1,.84-.57,3.73,3.73,0,0,1,1.27-.2,3.43,3.43,0,0,1,1.17.17,1.58,1.58,0,0,1,.66.43,1.53,1.53,0,0,1,.29.65,5.16,5.16,0,0,1,0,.88v1.27a13.56,13.56,0,0,0,.06,1.68,2.12,2.12,0,0,0,.24.68h-1A2.13,2.13,0,0,1,100.16,38.15ZM100.09,36a7,7,0,0,1-1.56.36,3.25,3.25,0,0,0-.83.19.79.79,0,0,0-.38.31.82.82,0,0,0-.13.45.81.81,0,0,0,.29.64,1.24,1.24,0,0,0,.84.25,2,2,0,0,0,1-.24,1.49,1.49,0,0,0,.63-.66,2.31,2.31,0,0,0,.15-1Z"/><path class="cls-1" d="M107.09,38.84,105,33.23h1l1.21,3.36c.13.36.25.74.36,1.13.08-.29.2-.65.35-1.06l1.25-3.43h1L108,38.84Z"/><path class="cls-1" d="M111,32.19V31.09h1v1.09Zm0,6.66V33.23h1v5.62Z"/><path class="cls-1" d="M117,38.84v-.71a1.74,1.74,0,0,1-1.57.84,2.15,2.15,0,0,1-1.23-.37,2.42,2.42,0,0,1-.88-1A3.59,3.59,0,0,1,113,36a4,4,0,0,1,.28-1.53,2.21,2.21,0,0,1,.84-1.05,2.24,2.24,0,0,1,1.26-.36,1.87,1.87,0,0,1,.9.21,1.89,1.89,0,0,1,.65.56V31.09h.94v7.75ZM114,36a2.43,2.43,0,0,0,.46,1.61,1.35,1.35,0,0,0,2.13,0,2.36,2.36,0,0,0,.44-1.56,2.64,2.64,0,0,0-.44-1.69,1.37,1.37,0,0,0-1.09-.54,1.33,1.33,0,0,0-1.06.52A2.57,2.57,0,0,0,114,36Z"/><path class="cls-1" d="M123.05,38.15a3.49,3.49,0,0,1-1,.64,2.93,2.93,0,0,1-1,.18,2.05,2.05,0,0,1-1.43-.45,1.51,1.51,0,0,1-.49-1.16,1.55,1.55,0,0,1,.19-.75,1.53,1.53,0,0,1,.49-.55,2.37,2.37,0,0,1,.69-.31,6.91,6.91,0,0,1,.84-.14,8.74,8.74,0,0,0,1.7-.33c0-.13,0-.21,0-.25a1.06,1.06,0,0,0-.27-.82,1.6,1.6,0,0,0-1.09-.32,1.65,1.65,0,0,0-1,.24,1.43,1.43,0,0,0-.48.83l-.93-.13a2.27,2.27,0,0,1,.42-1,1.8,1.8,0,0,1,.84-.57,3.74,3.74,0,0,1,1.28-.2,3.4,3.4,0,0,1,1.17.17,1.56,1.56,0,0,1,.66.43,1.53,1.53,0,0,1,.3.65,5.36,5.36,0,0,1,0,.88v1.27a13.42,13.42,0,0,0,.06,1.68,2,2,0,0,0,.24.68h-1A2.11,2.11,0,0,1,123.05,38.15ZM123,36a6.94,6.94,0,0,1-1.55.36,3.31,3.31,0,0,0-.83.19.82.82,0,0,0-.51.76.8.8,0,0,0,.29.64,1.22,1.22,0,0,0,.84.25,2,2,0,0,0,1-.24,1.47,1.47,0,0,0,.63-.66,2.31,2.31,0,0,0,.15-1Z"/><path class="cls-1" d="M128.42,38.84V33.23h.85V34a2,2,0,0,1,1.7-.92,1.89,1.89,0,0,1,1,.26,1.38,1.38,0,0,1,.56.73,2,2,0,0,1,1.74-1,1.71,1.71,0,0,1,1.29.46A2,2,0,0,1,136,35v3.86h-.95V35.31a2.64,2.64,0,0,0-.09-.82.79.79,0,0,0-.34-.4,1.07,1.07,0,0,0-.57-.16,1.32,1.32,0,0,0-1,.4,1.74,1.74,0,0,0-.39,1.26v3.26h-1V35.2a1.59,1.59,0,0,0-.23-1,.88.88,0,0,0-.76-.32,1.37,1.37,0,0,0-.74.21,1.19,1.19,0,0,0-.49.62,3.53,3.53,0,0,0-.15,1.18v2.91Z"/><path class="cls-1" d="M141.29,37l1,.12a2.41,2.41,0,0,1-.86,1.34,2.59,2.59,0,0,1-1.61.48,2.56,2.56,0,0,1-2-.76,3,3,0,0,1-.72-2.13,3.11,3.11,0,0,1,.73-2.2,2.48,2.48,0,0,1,1.89-.78,2.41,2.41,0,0,1,1.84.77,3,3,0,0,1,.72,2.16c0,.06,0,.14,0,.25h-4.19a2.14,2.14,0,0,0,.53,1.42,1.55,1.55,0,0,0,1.17.49,1.45,1.45,0,0,0,.89-.28A1.83,1.83,0,0,0,141.29,37Zm-3.13-1.54h3.14a1.87,1.87,0,0,0-.36-1.06,1.47,1.47,0,0,0-1.18-.55,1.52,1.52,0,0,0-1.1.44A1.74,1.74,0,0,0,138.16,35.49Z"/><path class="cls-1" d="M142.26,41l.18-.81a1.91,1.91,0,0,0,.45.08.51.51,0,0,0,.44-.19,2,2,0,0,0,.14-1v-5.9h1v5.92a2.79,2.79,0,0,1-.27,1.44,1.26,1.26,0,0,1-1.14.53A2.71,2.71,0,0,1,142.26,41Zm1.21-8.82v-1.1h1v1.1Z"/><path class="cls-1" d="M145.52,36a2.89,2.89,0,0,1,.87-2.31,2.63,2.63,0,0,1,1.76-.62,2.51,2.51,0,0,1,1.9.76,2.89,2.89,0,0,1,.74,2.1,3.72,3.72,0,0,1-.32,1.7,2.3,2.3,0,0,1-.95,1,2.78,2.78,0,0,1-1.36.34,2.52,2.52,0,0,1-1.9-.76A3,3,0,0,1,145.52,36Zm1,0a2.4,2.4,0,0,0,.47,1.62,1.57,1.57,0,0,0,2.37,0,2.44,2.44,0,0,0,.47-1.64,2.31,2.31,0,0,0-.47-1.58,1.51,1.51,0,0,0-1.18-.54,1.53,1.53,0,0,0-1.18.53A2.39,2.39,0,0,0,146.5,36Z"/><path class="cls-1" d="M151.9,38.84V33.23h.85v.85a2.34,2.34,0,0,1,.61-.79,1.06,1.06,0,0,1,.61-.19,1.85,1.85,0,0,1,1,.31l-.33.88a1.38,1.38,0,0,0-.7-.21.88.88,0,0,0-.56.19,1,1,0,0,0-.36.52,3.73,3.73,0,0,0-.16,1.11v2.94Z"/><polygon class="cls-1" points="31.86 7.99 36.65 7.99 36.65 15.25 46.23 15.25 46.23 7.99 51.02 7.99 51.02 25.96 46.23 25.96 46.23 18.08 36.65 18.08 36.65 25.96 31.86 25.96 31.86 7.99"/><path class="cls-1" d="M63.47,11.59H63.4L60.22,19h6.42ZM61.19,8h5.55l9.62,18H70.92l-2.11-4.12H58.87L56.73,26H51.63Z"/><path class="cls-1" d="M82.36,23.13h2.31c2.27,0,5-.41,5-2.5,0-2.34-2.59-2.7-5-2.7H82.36Zm0-7.88h2c2.06,0,4.61-.33,4.61-2.19,0-2.09-2.48-2.24-4.72-2.24H82.36ZM77.47,8H86c3.14,0,7.86.67,7.86,4.61,0,2.14-2,3.63-4.85,4v.05c3.32.23,5.59,1.88,5.59,4.09,0,4.53-5.52,5.2-8.59,5.2H77.47Z"/><rect class="cls-1" x="96.66" y="7.99" width="4.92" height="17.97"/><polygon class="cls-1" points="110.69 10.82 103.74 10.82 103.74 7.99 122.49 7.99 122.49 10.82 115.55 10.82 115.55 25.96 110.69 25.96 110.69 10.82"/><path class="cls-1" d="M129.85,11.59h-.07L126.27,19h7.08ZM127.18,8h5.49l9.51,18h-5.38l-2.08-4.12h-9.83L122.77,26h-5Z"/><polygon class="cls-1" points="144.44 10.82 137.43 10.82 137.43 7.99 156.37 7.99 154 10.82 149.35 10.82 149.35 25.96 144.44 25.96 144.44 10.82"/><path class="cls-1" d="M36,.65,34,4.44h4.07ZM35.58,0h1l3.72,6.86h-1L38.38,5H33.65l-1,1.84h-.9Z"/><polygon class="cls-1" points="40.7 0 45.12 0 45.12 0.59 41.62 0.59 41.62 3.04 44.96 3.04 44.96 3.63 41.62 3.63 41.62 6.86 40.7 6.86 40.7 0"/><path class="cls-1" d="M47,3.31h.64c1.38,0,2.68-.12,2.68-1.36,0-.87-.66-1.36-1.83-1.36H47ZM46.08,0h2.29c1.74,0,2.87.65,2.87,1.95s-1.3,1.95-3,1.95H47v3h-.92Z"/><path class="cls-1" d="M18.91,21.63l-2,0L15.1,14.1l1.88.13L18,18l3,.12-1.36-4.77,3.16.24.54,1.73-1.43-.09,1.46,4.85L18.49,20Zm-4.72-.06-.38-1.68-5.64-.14-1-5.38-1.8-.11-.33-2,3.88.3,1,5.12,3.39.14-.88-3.93,1.95.13,1.83,7.55ZM4.64,9.76l1.75.16L5.55,5.34,10.67,6l-.29-1.3,1.82.24,1.55,6.41-1.91-.17L11,7.62,7.89,7.27l.92,4.67L5,11.63Zm10-4.55.33,1.27L19.43,7l1.27,4.21,1.39.13L22.61,13l-3.15-.25L18.21,8.42,15.37,8.1l.89,3.43-1.84-.16L12.84,5ZM0,26H26.27V0H0Z"/></g></g></svg>