<svg xmlns="http://www.w3.org/2000/svg" viewBox="0 0 25.13 34.27"><defs><style>.cls-1,.cls-3{fill:#18618f;}.cls-2{fill:#fff;stroke:#18618f;stroke-miterlimit:10;stroke-width:0.25px;}.cls-3{font-size:20.03px;font-family:MyriadPro-Regular, Myriad Pro;}</style></defs><title>withdraw</title><g id="Layer_2" data-name="Layer 2"><g id="Layer_1-2" data-name="Layer 1"><path class="cls-1" d="M8.5,17.94A2.38,2.38,0,0,1,6,15.67a.38.38,0,1,1,.75,0A1.63,1.63,0,0,0,8.5,17.19a1.63,1.63,0,0,0,1.72-1.52A.88.88,0,0,0,10,15c-.28-.28-.92-.27-1.53-.27a2.82,2.82,0,0,1-2-.48A1.57,1.57,0,0,1,6,13.11,2.38,2.38,0,0,1,8.5,10.84,2.38,2.38,0,0,1,11,13.11a.38.38,0,1,1-.75,0A1.63,1.63,0,0,0,8.5,11.59a1.63,1.63,0,0,0-1.72,1.52.85.85,0,0,0,.19.62c.27.27.9.26,1.51.27a2.84,2.84,0,0,1,2.07.49A1.6,1.6,0,0,1,11,15.67,2.38,2.38,0,0,1,8.5,17.94Z"/><path class="cls-1" d="M8.5,11.59a.38.38,0,0,1-.38-.38V10.4a.38.38,0,1,1,.75,0v.81A.38.38,0,0,1,8.5,11.59Z"/><path class="cls-1" d="M8.5,18.75a.38.38,0,0,1-.38-.38v-.81a.38.38,0,1,1,.75,0v.81A.38.38,0,0,1,8.5,18.75Z"/><path class="cls-1" d="M10.65,27.34H6.34C2.85,27.34,0,25.44,0,23.09V13.48a1.88,1.88,0,0,1,0-.2,8.49,8.49,0,0,1,17,0,2.16,2.16,0,0,1,0,.23v9.61C17,25.44,14.15,27.34,10.65,27.34ZM8.5,5.85A7.72,7.72,0,0,0,.77,13.28v.08a1.18,1.18,0,0,0,0,.12v9.61c0,1.93,2.51,3.5,5.59,3.5h4.31c3.08,0,5.59-1.57,5.59-3.5V13.48a1,1,0,0,0,0-.1v-.08A7.72,7.72,0,0,0,8.5,5.85Z"/><path class="cls-1" d="M8.5,5.85h0a.38.38,0,0,1-.28-.12L3.61.63A.38.38,0,0,1,3.89,0H13.1a.38.38,0,0,1,.28.63L8.78,5.73A.38.38,0,0,1,8.5,5.85ZM4.74.75,8.5,4.92,12.25.75Z"/><path class="cls-1" d="M18.64,30a6.49,6.49,0,1,1,6.5-6.49A6.52,6.52,0,0,1,18.64,30Zm0-12a5.54,5.54,0,1,0,5.54,5.54A5.53,5.53,0,0,0,18.64,17.94Z"/><circle class="cls-2" cx="18.59" cy="23.45" r="5.81"/><text class="cls-3" transform="translate(15.64 29.26)">-</text></g></g></svg>