<svg xmlns="http://www.w3.org/2000/svg" viewBox="0 0 17.72 21.39"><defs><style>.cls-1{fill:none;stroke:#18618f;stroke-miterlimit:10;stroke-width:0.73px;}</style></defs><title>acumulated-rentability</title><g id="Layer_2" data-name="Layer 2"><g id="Layer_1-2" data-name="Layer 1"><path class="cls-1" d="M17.35,3.12c0,1.52-2.05,2.75-4.59,2.75S8.17,4.64,8.17,3.12"/><path class="cls-1" d="M17.35,5.42c0,1.52-2.05,2.75-4.59,2.75S8.17,6.94,8.17,5.42"/><path class="cls-1" d="M17.35,7.71c0,1.52-2.05,2.75-4.59,2.75a7.27,7.27,0,0,1-1.84-.23"/><path class="cls-1" d="M17.35,10c0,1.52-2.05,2.75-4.59,2.75a7.27,7.27,0,0,1-1.84-.23"/><path class="cls-1" d="M17.35,12.3c0,1.52-2.05,2.75-4.59,2.75a7.27,7.27,0,0,1-1.84-.23"/><path class="cls-1" d="M5,8.63C2.42,8.63.37,9.86.37,11.38v6.88C.37,19.79,2.42,21,5,21s4.59-1.23,4.59-2.75V11.38C9.55,9.86,7.49,8.63,5,8.63Z"/><path class="cls-1" d="M9.55,11.38c0,1.52-2.05,2.75-4.59,2.75S.37,12.9.37,11.38"/><path class="cls-1" d="M9.55,13.68c0,1.52-2.05,2.75-4.59,2.75S.37,15.2.37,13.68"/><path class="cls-1" d="M9.55,16c0,1.52-2.05,2.75-4.59,2.75S.37,17.49.37,16"/><path class="cls-1" d="M10.92,17.12a7.27,7.27,0,0,0,1.83.23c2.53,0,4.59-1.23,4.59-2.75V3.12c0-1.52-2.05-2.75-4.59-2.75S8.17,1.6,8.17,3.12V7.71"/></g></g></svg>